<svg width="1903" height="111" viewBox="0 0 1903 111" fill="none" xmlns="http://www.w3.org/2000/svg">
<path d="M567 50.0239C567 22.4097 589.386 0.0239258 617 0.0239258H1267C1294.61 0.0239258 1317 22.4097 1317 50.0239V60.374C1317 87.9883 1294.61 110.374 1267 110.374H617C589.386 110.374 567 87.9883 567 60.374V50.0239Z" fill="#7CE43C"/>
<path d="M569.5 50.0239C569.5 23.7904 590.766 2.52393 617 2.52393H1267C1293.23 2.52393 1314.5 23.7904 1314.5 50.0239V60.374C1314.5 86.6076 1293.23 107.874 1267 107.874H617C590.766 107.874 569.5 86.6076 569.5 60.374V50.0239Z" stroke="#F3EA00" stroke-opacity="0.54" stroke-width="5"/>
<path d="M655.656 64.8062C655.656 63.0353 655.031 61.6812 653.781 60.7437C652.531 59.7853 650.281 58.7853 647.031 57.7437C643.781 56.6812 641.208 55.6395 639.312 54.6187C634.146 51.827 631.562 48.0666 631.562 43.3374C631.562 40.8791 632.25 38.6916 633.625 36.7749C635.021 34.8374 637.01 33.327 639.594 32.2437C642.198 31.1603 645.115 30.6187 648.344 30.6187C651.594 30.6187 654.49 31.2124 657.031 32.3999C659.573 33.5666 661.542 35.2228 662.938 37.3687C664.354 39.5145 665.062 41.952 665.062 44.6812H655.688C655.688 42.5978 655.031 40.9832 653.719 39.8374C652.406 38.6707 650.562 38.0874 648.188 38.0874C645.896 38.0874 644.115 38.577 642.844 39.5562C641.573 40.5145 640.938 41.7853 640.938 43.3687C640.938 44.8478 641.677 46.0874 643.156 47.0874C644.656 48.0874 646.854 49.0249 649.75 49.8999C655.083 51.5041 658.969 53.4937 661.406 55.8687C663.844 58.2437 665.062 61.202 665.062 64.7437C665.062 68.6812 663.573 71.7749 660.594 74.0249C657.615 76.2541 653.604 77.3687 648.562 77.3687C645.062 77.3687 641.875 76.7332 639 75.4624C636.125 74.1707 633.927 72.4103 632.406 70.1812C630.906 67.952 630.156 65.3687 630.156 62.4312H639.562C639.562 67.452 642.562 69.9624 648.562 69.9624C650.792 69.9624 652.531 69.5145 653.781 68.6187C655.031 67.702 655.656 66.4312 655.656 64.8062ZM669.438 59.5249C669.438 56.1707 670.083 53.1812 671.375 50.5562C672.667 47.9312 674.521 45.8999 676.938 44.4624C679.375 43.0249 682.198 42.3062 685.406 42.3062C689.969 42.3062 693.688 43.702 696.562 46.4937C699.458 49.2853 701.073 53.077 701.406 57.8687L701.469 60.1812C701.469 65.3687 700.021 69.5353 697.125 72.6812C694.229 75.8062 690.344 77.3687 685.469 77.3687C680.594 77.3687 676.698 75.8062 673.781 72.6812C670.885 69.5562 669.438 65.3062 669.438 59.9312V59.5249ZM678.469 60.1812C678.469 63.3895 679.073 65.8478 680.281 67.5562C681.49 69.2437 683.219 70.0874 685.469 70.0874C687.656 70.0874 689.365 69.2541 690.594 67.5874C691.823 65.8999 692.438 63.2124 692.438 59.5249C692.438 56.3791 691.823 53.9416 690.594 52.2124C689.365 50.4832 687.635 49.6187 685.406 49.6187C683.198 49.6187 681.49 50.4832 680.281 52.2124C679.073 53.9207 678.469 56.577 678.469 60.1812ZM716.562 76.7437H707.5V28.7437H716.562V76.7437ZM733.562 76.7437H724.5V42.9312H733.562V76.7437ZM723.969 34.1812C723.969 32.827 724.417 31.7124 725.312 30.8374C726.229 29.9624 727.469 29.5249 729.031 29.5249C730.573 29.5249 731.802 29.9624 732.719 30.8374C733.635 31.7124 734.094 32.827 734.094 34.1812C734.094 35.5562 733.625 36.6812 732.688 37.5562C731.771 38.4312 730.552 38.8687 729.031 38.8687C727.51 38.8687 726.281 38.4312 725.344 37.5562C724.427 36.6812 723.969 35.5562 723.969 34.1812ZM755.094 70.0874C756.76 70.0874 758.115 69.6291 759.156 68.7124C760.198 67.7957 760.74 66.577 760.781 65.0562H769.25C769.229 67.3478 768.604 69.452 767.375 71.3687C766.146 73.2645 764.458 74.7437 762.312 75.8062C760.188 76.8478 757.833 77.3687 755.25 77.3687C750.417 77.3687 746.604 75.8374 743.812 72.7749C741.021 69.6916 739.625 65.4416 739.625 60.0249V59.4312C739.625 54.2228 741.01 50.0666 743.781 46.9624C746.552 43.8582 750.354 42.3062 755.188 42.3062C759.417 42.3062 762.802 43.5145 765.344 45.9312C767.906 48.327 769.208 51.5249 769.25 55.5249H760.781C760.74 53.7749 760.198 52.3582 759.156 51.2749C758.115 50.1707 756.74 49.6187 755.031 49.6187C752.927 49.6187 751.333 50.3895 750.25 51.9312C749.188 53.452 748.656 55.9312 748.656 59.3687V60.3062C748.656 63.7853 749.188 66.2853 750.25 67.8062C751.312 69.327 752.927 70.0874 755.094 70.0874ZM783.938 76.7437H774.875V42.9312H783.938V76.7437ZM774.344 34.1812C774.344 32.827 774.792 31.7124 775.688 30.8374C776.604 29.9624 777.844 29.5249 779.406 29.5249C780.948 29.5249 782.177 29.9624 783.094 30.8374C784.01 31.7124 784.469 32.827 784.469 34.1812C784.469 35.5562 784 36.6812 783.062 37.5562C782.146 38.4312 780.927 38.8687 779.406 38.8687C777.885 38.8687 776.656 38.4312 775.719 37.5562C774.802 36.6812 774.344 35.5562 774.344 34.1812ZM802.219 34.6187V42.9312H808V49.5562H802.219V66.4312C802.219 67.6812 802.458 68.577 802.938 69.1187C803.417 69.6603 804.333 69.9312 805.688 69.9312C806.688 69.9312 807.573 69.8582 808.344 69.7124V76.5562C806.573 77.0978 804.75 77.3687 802.875 77.3687C796.542 77.3687 793.312 74.1707 793.188 67.7749V49.5562H788.25V42.9312H793.188V34.6187H802.219ZM832.625 76.7437C832.208 75.9312 831.906 74.9207 831.719 73.7124C829.531 76.1499 826.688 77.3687 823.188 77.3687C819.875 77.3687 817.125 76.4103 814.938 74.4937C812.771 72.577 811.688 70.1603 811.688 67.2437C811.688 63.6603 813.01 60.9103 815.656 58.9937C818.323 57.077 822.167 56.1082 827.188 56.0874H831.344V54.1499C831.344 52.5874 830.938 51.3374 830.125 50.3999C829.333 49.4624 828.073 48.9937 826.344 48.9937C824.823 48.9937 823.625 49.3582 822.75 50.0874C821.896 50.8166 821.469 51.8166 821.469 53.0874H812.438C812.438 51.1291 813.042 49.3166 814.25 47.6499C815.458 45.9832 817.167 44.6812 819.375 43.7437C821.583 42.7853 824.062 42.3062 826.812 42.3062C830.979 42.3062 834.281 43.3582 836.719 45.4624C839.177 47.5457 840.406 50.4832 840.406 54.2749V68.9312C840.427 72.1395 840.875 74.5666 841.75 76.2124V76.7437H832.625ZM825.156 70.4624C826.49 70.4624 827.719 70.1707 828.844 69.5874C829.969 68.9832 830.802 68.1812 831.344 67.1812V61.3687H827.969C823.448 61.3687 821.042 62.9312 820.75 66.0562L820.719 66.5874C820.719 67.7124 821.115 68.6395 821.906 69.3687C822.698 70.0978 823.781 70.4624 825.156 70.4624ZM866.344 51.3999C865.115 51.2332 864.031 51.1499 863.094 51.1499C859.677 51.1499 857.438 52.3062 856.375 54.6187V76.7437H847.344V42.9312H855.875L856.125 46.9624C857.938 43.8582 860.448 42.3062 863.656 42.3062C864.656 42.3062 865.594 42.4416 866.469 42.7124L866.344 51.3999ZM897.219 76.7437H887.844V31.2437H897.219V76.7437ZM913.656 42.9312L913.938 46.8374C916.354 43.8166 919.594 42.3062 923.656 42.3062C927.24 42.3062 929.906 43.3582 931.656 45.4624C933.406 47.5666 934.302 50.7124 934.344 54.8999V76.7437H925.312V55.1187C925.312 53.202 924.896 51.8166 924.062 50.9624C923.229 50.0874 921.844 49.6499 919.906 49.6499C917.365 49.6499 915.458 50.7332 914.188 52.8999V76.7437H905.156V42.9312H913.656ZM943.688 76.7437V49.5562H938.656V42.9312H943.688V40.0562C943.688 36.2645 944.771 33.327 946.938 31.2437C949.125 29.1395 952.177 28.0874 956.094 28.0874C957.344 28.0874 958.875 28.2957 960.688 28.7124L960.594 35.7124C959.844 35.5249 958.927 35.4312 957.844 35.4312C954.448 35.4312 952.75 37.0249 952.75 40.2124V42.9312H959.469V49.5562H952.75V76.7437H943.688ZM962.75 59.5249C962.75 56.1707 963.396 53.1812 964.688 50.5562C965.979 47.9312 967.833 45.8999 970.25 44.4624C972.688 43.0249 975.51 42.3062 978.719 42.3062C983.281 42.3062 987 43.702 989.875 46.4937C992.771 49.2853 994.385 53.077 994.719 57.8687L994.781 60.1812C994.781 65.3687 993.333 69.5353 990.438 72.6812C987.542 75.8062 983.656 77.3687 978.781 77.3687C973.906 77.3687 970.01 75.8062 967.094 72.6812C964.198 69.5562 962.75 65.3062 962.75 59.9312V59.5249ZM971.781 60.1812C971.781 63.3895 972.385 65.8478 973.594 67.5562C974.802 69.2437 976.531 70.0874 978.781 70.0874C980.969 70.0874 982.677 69.2541 983.906 67.5874C985.135 65.8999 985.75 63.2124 985.75 59.5249C985.75 56.3791 985.135 53.9416 983.906 52.2124C982.677 50.4832 980.948 49.6187 978.719 49.6187C976.51 49.6187 974.802 50.4832 973.594 52.2124C972.385 53.9207 971.781 56.577 971.781 60.1812ZM1019.34 51.3999C1018.11 51.2332 1017.03 51.1499 1016.09 51.1499C1012.68 51.1499 1010.44 52.3062 1009.38 54.6187V76.7437H1000.34V42.9312H1008.88L1009.12 46.9624C1010.94 43.8582 1013.45 42.3062 1016.66 42.3062C1017.66 42.3062 1018.59 42.4416 1019.47 42.7124L1019.34 51.3999ZM1032.19 42.9312L1032.47 46.7124C1034.86 43.7749 1038.1 42.3062 1042.19 42.3062C1046.54 42.3062 1049.53 44.0249 1051.16 47.4624C1053.53 44.0249 1056.92 42.3062 1061.31 42.3062C1064.98 42.3062 1067.71 43.3791 1069.5 45.5249C1071.29 47.6499 1072.19 50.8582 1072.19 55.1499V76.7437H1063.12V55.1812C1063.12 53.2645 1062.75 51.8687 1062 50.9937C1061.25 50.0978 1059.93 49.6499 1058.03 49.6499C1055.32 49.6499 1053.45 50.9416 1052.41 53.5249L1052.44 76.7437H1043.41V55.2124C1043.41 53.2541 1043.02 51.8374 1042.25 50.9624C1041.48 50.0874 1040.17 49.6499 1038.31 49.6499C1035.75 49.6499 1033.9 50.7124 1032.75 52.8374V76.7437H1023.72V42.9312H1032.19ZM1098.75 76.7437C1098.33 75.9312 1098.03 74.9207 1097.84 73.7124C1095.66 76.1499 1092.81 77.3687 1089.31 77.3687C1086 77.3687 1083.25 76.4103 1081.06 74.4937C1078.9 72.577 1077.81 70.1603 1077.81 67.2437C1077.81 63.6603 1079.14 60.9103 1081.78 58.9937C1084.45 57.077 1088.29 56.1082 1093.31 56.0874H1097.47V54.1499C1097.47 52.5874 1097.06 51.3374 1096.25 50.3999C1095.46 49.4624 1094.2 48.9937 1092.47 48.9937C1090.95 48.9937 1089.75 49.3582 1088.88 50.0874C1088.02 50.8166 1087.59 51.8166 1087.59 53.0874H1078.56C1078.56 51.1291 1079.17 49.3166 1080.38 47.6499C1081.58 45.9832 1083.29 44.6812 1085.5 43.7437C1087.71 42.7853 1090.19 42.3062 1092.94 42.3062C1097.1 42.3062 1100.41 43.3582 1102.84 45.4624C1105.3 47.5457 1106.53 50.4832 1106.53 54.2749V68.9312C1106.55 72.1395 1107 74.5666 1107.88 76.2124V76.7437H1098.75ZM1091.28 70.4624C1092.61 70.4624 1093.84 70.1707 1094.97 69.5874C1096.09 68.9832 1096.93 68.1812 1097.47 67.1812V61.3687H1094.09C1089.57 61.3687 1087.17 62.9312 1086.88 66.0562L1086.84 66.5874C1086.84 67.7124 1087.24 68.6395 1088.03 69.3687C1088.82 70.0978 1089.91 70.4624 1091.28 70.4624ZM1127.53 70.0874C1129.2 70.0874 1130.55 69.6291 1131.59 68.7124C1132.64 67.7957 1133.18 66.577 1133.22 65.0562H1141.69C1141.67 67.3478 1141.04 69.452 1139.81 71.3687C1138.58 73.2645 1136.9 74.7437 1134.75 75.8062C1132.62 76.8478 1130.27 77.3687 1127.69 77.3687C1122.85 77.3687 1119.04 75.8374 1116.25 72.7749C1113.46 69.6916 1112.06 65.4416 1112.06 60.0249V59.4312C1112.06 54.2228 1113.45 50.0666 1116.22 46.9624C1118.99 43.8582 1122.79 42.3062 1127.62 42.3062C1131.85 42.3062 1135.24 43.5145 1137.78 45.9312C1140.34 48.327 1141.65 51.5249 1141.69 55.5249H1133.22C1133.18 53.7749 1132.64 52.3582 1131.59 51.2749C1130.55 50.1707 1129.18 49.6187 1127.47 49.6187C1125.36 49.6187 1123.77 50.3895 1122.69 51.9312C1121.62 53.452 1121.09 55.9312 1121.09 59.3687V60.3062C1121.09 63.7853 1121.62 66.2853 1122.69 67.8062C1123.75 69.327 1125.36 70.0874 1127.53 70.0874ZM1156.38 76.7437H1147.31V42.9312H1156.38V76.7437ZM1146.78 34.1812C1146.78 32.827 1147.23 31.7124 1148.12 30.8374C1149.04 29.9624 1150.28 29.5249 1151.84 29.5249C1153.39 29.5249 1154.61 29.9624 1155.53 30.8374C1156.45 31.7124 1156.91 32.827 1156.91 34.1812C1156.91 35.5562 1156.44 36.6812 1155.5 37.5562C1154.58 38.4312 1153.36 38.8687 1151.84 38.8687C1150.32 38.8687 1149.09 38.4312 1148.16 37.5562C1147.24 36.6812 1146.78 35.5562 1146.78 34.1812ZM1162.44 59.5249C1162.44 56.1707 1163.08 53.1812 1164.38 50.5562C1165.67 47.9312 1167.52 45.8999 1169.94 44.4624C1172.38 43.0249 1175.2 42.3062 1178.41 42.3062C1182.97 42.3062 1186.69 43.702 1189.56 46.4937C1192.46 49.2853 1194.07 53.077 1194.41 57.8687L1194.47 60.1812C1194.47 65.3687 1193.02 69.5353 1190.12 72.6812C1187.23 75.8062 1183.34 77.3687 1178.47 77.3687C1173.59 77.3687 1169.7 75.8062 1166.78 72.6812C1163.89 69.5562 1162.44 65.3062 1162.44 59.9312V59.5249ZM1171.47 60.1812C1171.47 63.3895 1172.07 65.8478 1173.28 67.5562C1174.49 69.2437 1176.22 70.0874 1178.47 70.0874C1180.66 70.0874 1182.36 69.2541 1183.59 67.5874C1184.82 65.8999 1185.44 63.2124 1185.44 59.5249C1185.44 56.3791 1184.82 53.9416 1183.59 52.2124C1182.36 50.4832 1180.64 49.6187 1178.41 49.6187C1176.2 49.6187 1174.49 50.4832 1173.28 52.2124C1172.07 53.9207 1171.47 56.577 1171.47 60.1812ZM1180.19 28.7437H1190.03L1181.38 38.4312H1174.03L1180.19 28.7437ZM1208.34 42.9312L1208.62 46.8374C1211.04 43.8166 1214.28 42.3062 1218.34 42.3062C1221.93 42.3062 1224.59 43.3582 1226.34 45.4624C1228.09 47.5666 1228.99 50.7124 1229.03 54.8999V76.7437H1220V55.1187C1220 53.202 1219.58 51.8166 1218.75 50.9624C1217.92 50.0874 1216.53 49.6499 1214.59 49.6499C1212.05 49.6499 1210.15 50.7332 1208.88 52.8999V76.7437H1199.84V42.9312H1208.34ZM1244.22 42.9312L1244.5 46.8374C1246.92 43.8166 1250.16 42.3062 1254.22 42.3062C1257.8 42.3062 1260.47 43.3582 1262.22 45.4624C1263.97 47.5666 1264.86 50.7124 1264.91 54.8999V76.7437H1255.88V55.1187C1255.88 53.202 1255.46 51.8166 1254.62 50.9624C1253.79 50.0874 1252.41 49.6499 1250.47 49.6499C1247.93 49.6499 1246.02 50.7332 1244.75 52.8999V76.7437H1235.72V42.9312H1244.22Z" fill="black"/>
<line y1="-3" x2="573.999" y2="-3" transform="matrix(1 0.000440294 -0.000413966 1 0 55.7144)" stroke="#29F031" stroke-width="6" stroke-dasharray="4 4"/>
<line y1="-3" x2="586" y2="-3" transform="matrix(1 8.61485e-05 -8.09972e-05 1 1317 55.7144)" stroke="#29F031" stroke-width="6" stroke-dasharray="4 4"/>
</svg>
