<svg width="1885" height="111" viewBox="0 0 1885 111" fill="none" xmlns="http://www.w3.org/2000/svg">
<path d="M567 50C567 22.3858 589.386 0 617 0H1267C1294.61 0 1317 22.3858 1317 50V60.3501C1317 87.9643 1294.61 110.35 1267 110.35H617C589.386 110.35 567 87.9643 567 60.3501V50Z" fill="#4E8F26"/>
<path d="M569.5 50C569.5 23.7665 590.766 2.5 617 2.5H1267C1293.23 2.5 1314.5 23.7665 1314.5 50V60.3501C1314.5 86.5836 1293.23 107.85 1267 107.85H617C590.766 107.85 569.5 86.5836 569.5 60.3501V50Z" stroke="#F3EA00" stroke-opacity="0.54" stroke-width="5"/>
<path d="M748.438 60.9688V77H739.062V31.5H756.812C760.229 31.5 763.229 32.125 765.812 33.375C768.417 34.625 770.417 36.4062 771.812 38.7188C773.208 41.0104 773.906 43.625 773.906 46.5625C773.906 51.0208 772.375 54.5417 769.312 57.125C766.271 59.6875 762.052 60.9688 756.656 60.9688H748.438ZM748.438 53.375H756.812C759.292 53.375 761.177 52.7917 762.469 51.625C763.781 50.4583 764.438 48.7917 764.438 46.625C764.438 44.3958 763.781 42.5938 762.469 41.2188C761.156 39.8438 759.344 39.1354 757.031 39.0938H748.438V53.375ZM798.781 51.6562C797.552 51.4896 796.469 51.4062 795.531 51.4062C792.115 51.4062 789.875 52.5625 788.812 54.875V77H779.781V43.1875H788.312L788.562 47.2188C790.375 44.1146 792.885 42.5625 796.094 42.5625C797.094 42.5625 798.031 42.6979 798.906 42.9688L798.781 51.6562ZM800.625 59.7812C800.625 56.4271 801.271 53.4375 802.562 50.8125C803.854 48.1875 805.708 46.1562 808.125 44.7188C810.562 43.2812 813.385 42.5625 816.594 42.5625C821.156 42.5625 824.875 43.9583 827.75 46.75C830.646 49.5417 832.26 53.3333 832.594 58.125L832.656 60.4375C832.656 65.625 831.208 69.7917 828.312 72.9375C825.417 76.0625 821.531 77.625 816.656 77.625C811.781 77.625 807.885 76.0625 804.969 72.9375C802.073 69.8125 800.625 65.5625 800.625 60.1875V59.7812ZM809.656 60.4375C809.656 63.6458 810.26 66.1042 811.469 67.8125C812.677 69.5 814.406 70.3438 816.656 70.3438C818.844 70.3438 820.552 69.5104 821.781 67.8438C823.01 66.1562 823.625 63.4688 823.625 59.7812C823.625 56.6354 823.01 54.1979 821.781 52.4688C820.552 50.7396 818.823 49.875 816.594 49.875C814.385 49.875 812.677 50.7396 811.469 52.4688C810.26 54.1771 809.656 56.8333 809.656 60.4375ZM850.406 53.2812L856.094 43.1875H865.75L856.125 59.75L866.156 77H856.469L850.438 66.375L844.438 77H834.719L844.75 59.75L835.156 43.1875H844.844L850.406 53.2812ZM879.625 77H870.562V43.1875H879.625V77ZM870.031 34.4375C870.031 33.0833 870.479 31.9688 871.375 31.0938C872.292 30.2188 873.531 29.7812 875.094 29.7812C876.635 29.7812 877.865 30.2188 878.781 31.0938C879.698 31.9688 880.156 33.0833 880.156 34.4375C880.156 35.8125 879.688 36.9375 878.75 37.8125C877.833 38.6875 876.615 39.125 875.094 39.125C873.573 39.125 872.344 38.6875 871.406 37.8125C870.49 36.9375 870.031 35.8125 870.031 34.4375ZM895.562 43.1875L895.844 46.9688C898.24 44.0312 901.479 42.5625 905.562 42.5625C909.917 42.5625 912.906 44.2812 914.531 47.7188C916.906 44.2812 920.292 42.5625 924.688 42.5625C928.354 42.5625 931.083 43.6354 932.875 45.7812C934.667 47.9062 935.562 51.1146 935.562 55.4062V77H926.5V55.4375C926.5 53.5208 926.125 52.125 925.375 51.25C924.625 50.3542 923.302 49.9062 921.406 49.9062C918.698 49.9062 916.823 51.1979 915.781 53.7812L915.812 77H906.781V55.4688C906.781 53.5104 906.396 52.0938 905.625 51.2188C904.854 50.3438 903.542 49.9062 901.688 49.9062C899.125 49.9062 897.271 50.9688 896.125 53.0938V77H887.094V43.1875H895.562ZM962.125 77C961.708 76.1875 961.406 75.1771 961.219 73.9688C959.031 76.4062 956.188 77.625 952.688 77.625C949.375 77.625 946.625 76.6667 944.438 74.75C942.271 72.8333 941.188 70.4167 941.188 67.5C941.188 63.9167 942.51 61.1667 945.156 59.25C947.823 57.3333 951.667 56.3646 956.688 56.3438H960.844V54.4062C960.844 52.8438 960.438 51.5938 959.625 50.6562C958.833 49.7188 957.573 49.25 955.844 49.25C954.323 49.25 953.125 49.6146 952.25 50.3438C951.396 51.0729 950.969 52.0729 950.969 53.3438H941.938C941.938 51.3854 942.542 49.5729 943.75 47.9062C944.958 46.2396 946.667 44.9375 948.875 44C951.083 43.0417 953.562 42.5625 956.312 42.5625C960.479 42.5625 963.781 43.6146 966.219 45.7188C968.677 47.8021 969.906 50.7396 969.906 54.5312V69.1875C969.927 72.3958 970.375 74.8229 971.25 76.4688V77H962.125ZM954.656 70.7188C955.99 70.7188 957.219 70.4271 958.344 69.8438C959.469 69.2396 960.302 68.4375 960.844 67.4375V61.625H957.469C952.948 61.625 950.542 63.1875 950.25 66.3125L950.219 66.8438C950.219 67.9688 950.615 68.8958 951.406 69.625C952.198 70.3542 953.281 70.7188 954.656 70.7188ZM985.312 43.1875L985.594 46.9688C987.99 44.0312 991.229 42.5625 995.312 42.5625C999.667 42.5625 1002.66 44.2812 1004.28 47.7188C1006.66 44.2812 1010.04 42.5625 1014.44 42.5625C1018.1 42.5625 1020.83 43.6354 1022.62 45.7812C1024.42 47.9062 1025.31 51.1146 1025.31 55.4062V77H1016.25V55.4375C1016.25 53.5208 1015.88 52.125 1015.12 51.25C1014.38 50.3542 1013.05 49.9062 1011.16 49.9062C1008.45 49.9062 1006.57 51.1979 1005.53 53.7812L1005.56 77H996.531V55.4688C996.531 53.5104 996.146 52.0938 995.375 51.2188C994.604 50.3438 993.292 49.9062 991.438 49.9062C988.875 49.9062 987.021 50.9688 985.875 53.0938V77H976.844V43.1875H985.312ZM1047.84 77.625C1042.89 77.625 1038.84 76.1042 1035.72 73.0625C1032.61 70.0208 1031.06 65.9688 1031.06 60.9062V60.0312C1031.06 56.6354 1031.72 53.6042 1033.03 50.9375C1034.34 48.25 1036.2 46.1875 1038.59 44.75C1041.01 43.2917 1043.76 42.5625 1046.84 42.5625C1051.47 42.5625 1055.1 44.0208 1057.75 46.9375C1060.42 49.8542 1061.75 53.9896 1061.75 59.3438V63.0312H1040.22C1040.51 65.2396 1041.39 67.0104 1042.84 68.3438C1044.32 69.6771 1046.19 70.3438 1048.44 70.3438C1051.92 70.3438 1054.64 69.0833 1056.59 66.5625L1061.03 71.5312C1059.68 73.4479 1057.84 74.9479 1055.53 76.0312C1053.22 77.0938 1050.66 77.625 1047.84 77.625ZM1046.81 49.875C1045.02 49.875 1043.56 50.4792 1042.44 51.6875C1041.33 52.8958 1040.62 54.625 1040.31 56.875H1052.88V56.1562C1052.83 54.1562 1052.29 52.6146 1051.25 51.5312C1050.21 50.4271 1048.73 49.875 1046.81 49.875ZM1075.22 43.1875L1075.5 47.0938C1077.92 44.0729 1081.16 42.5625 1085.22 42.5625C1088.8 42.5625 1091.47 43.6146 1093.22 45.7188C1094.97 47.8229 1095.86 50.9688 1095.91 55.1562V77H1086.88V55.375C1086.88 53.4583 1086.46 52.0729 1085.62 51.2188C1084.79 50.3438 1083.41 49.9062 1081.47 49.9062C1078.93 49.9062 1077.02 50.9896 1075.75 53.1562V77H1066.72V43.1875H1075.22ZM1113.59 34.875V43.1875H1119.38V49.8125H1113.59V66.6875C1113.59 67.9375 1113.83 68.8333 1114.31 69.375C1114.79 69.9167 1115.71 70.1875 1117.06 70.1875C1118.06 70.1875 1118.95 70.1146 1119.72 69.9688V76.8125C1117.95 77.3542 1116.12 77.625 1114.25 77.625C1107.92 77.625 1104.69 74.4271 1104.56 68.0312V49.8125H1099.62V43.1875H1104.56V34.875H1113.59ZM1139.97 77.625C1135.01 77.625 1130.97 76.1042 1127.84 73.0625C1124.74 70.0208 1123.19 65.9688 1123.19 60.9062V60.0312C1123.19 56.6354 1123.84 53.6042 1125.16 50.9375C1126.47 48.25 1128.32 46.1875 1130.72 44.75C1133.14 43.2917 1135.89 42.5625 1138.97 42.5625C1143.59 42.5625 1147.23 44.0208 1149.88 46.9375C1152.54 49.8542 1153.88 53.9896 1153.88 59.3438V63.0312H1132.34C1132.64 65.2396 1133.51 67.0104 1134.97 68.3438C1136.45 69.6771 1138.31 70.3438 1140.56 70.3438C1144.04 70.3438 1146.76 69.0833 1148.72 66.5625L1153.16 71.5312C1151.8 73.4479 1149.97 74.9479 1147.66 76.0312C1145.34 77.0938 1142.78 77.625 1139.97 77.625ZM1138.94 49.875C1137.15 49.875 1135.69 50.4792 1134.56 51.6875C1133.46 52.8958 1132.75 54.625 1132.44 56.875H1145V56.1562C1144.96 54.1562 1144.42 52.6146 1143.38 51.5312C1142.33 50.4271 1140.85 49.875 1138.94 49.875Z" fill="black"/>
<line y1="-3" x2="573.999" y2="-3" transform="matrix(1 0.000440294 -0.000413966 1 0 55.6904)" stroke="#29F031" stroke-width="6" stroke-dasharray="4 4"/>
<line y1="-3" x2="586" y2="-3" transform="matrix(1 8.61485e-05 -8.09972e-05 1 1317 55.6904)" stroke="#29F031" stroke-width="6" stroke-dasharray="4 4"/>
</svg>
